<svg width="14" height="14" viewBox="0 0 14 14" fill="none" xmlns="http://www.w3.org/2000/svg">
<path d="M12.138 4.158L9.86795 1.867L10.742 0.992003C10.9226 0.797337 11.138 0.700003 11.388 0.700003C11.638 0.700003 11.8603 0.797337 12.055 0.992003L13.013 1.971C13.1936 2.13767 13.277 2.36 13.263 2.638C13.249 2.91534 13.1586 3.13734 12.992 3.304L12.138 4.158ZM1.42895 13.305C1.23495 13.305 1.06495 13.2353 0.918951 13.096C0.772951 12.9573 0.699951 12.7907 0.699951 12.596V11.305C0.699951 11.2217 0.717285 11.1417 0.751951 11.065C0.787285 10.9883 0.839618 10.9087 0.908951 10.826L9.24195 2.492L11.513 4.763L3.17895 13.096C3.10962 13.1793 3.03695 13.235 2.96095 13.263C2.88428 13.291 2.79728 13.305 2.69995 13.305H1.42895Z" fill="#63686F"/>
</svg>
