<svg width="18" height="18" viewBox="0 0 18 18" fill="none" xmlns="http://www.w3.org/2000/svg">
<mask id="mask0_746_12781" style="mask-type:alpha" maskUnits="userSpaceOnUse" x="0" y="0" width="18" height="18">
<rect width="18" height="18" fill="#D9D9D9"/>
</mask>
<g mask="url(#mask0_746_12781)">
<path d="M8.99999 12.3939C9.14999 12.3939 9.27509 12.3438 9.37529 12.2436C9.47489 12.144 9.52469 12.0192 9.52469 11.8692C9.52469 11.7192 9.47489 11.5941 9.37529 11.4939C9.27509 11.3937 9.14999 11.3436 8.99999 11.3436C8.84999 11.3436 8.72489 11.3937 8.62469 11.4939C8.52509 11.5941 8.47529 11.7192 8.47529 11.8692C8.47529 12.0192 8.52509 12.144 8.62469 12.2436C8.72489 12.3438 8.84999 12.3939 8.99999 12.3939ZM8.99999 9.95579C9.13739 9.95579 9.25289 9.90899 9.34649 9.81539C9.44069 9.72179 9.48779 9.60629 9.48779 9.46889V5.94359C9.48779 5.80619 9.44069 5.69069 9.34649 5.59709C9.25289 5.50289 9.13739 5.45579 8.99999 5.45579C8.86259 5.45579 8.74709 5.50289 8.65349 5.59709C8.55929 5.69069 8.51219 5.80619 8.51219 5.94359V9.46889C8.51219 9.60629 8.55929 9.72179 8.65349 9.81539C8.74709 9.90899 8.86259 9.95579 8.99999 9.95579ZM8.99999 15.8247C8.06279 15.8247 7.17839 15.6468 6.34679 15.291C5.51579 14.9346 4.79069 14.4471 4.17149 13.8285C3.55289 13.2093 3.06539 12.4842 2.70899 11.6532C2.35319 10.8216 2.17529 9.93719 2.17529 8.99999C2.17529 8.05019 2.35319 7.16279 2.70899 6.33779C3.06539 5.51279 3.55289 4.79069 4.17149 4.17149C4.79069 3.55289 5.51579 3.06539 6.34679 2.70899C7.17839 2.35319 8.06279 2.17529 8.99999 2.17529C9.94979 2.17529 10.8372 2.35319 11.6622 2.70899C12.4872 3.06539 13.2093 3.55289 13.8285 4.17149C14.4471 4.79069 14.9346 5.51579 15.291 6.34679C15.6468 7.17839 15.8247 8.06279 15.8247 8.99999C15.8247 9.93719 15.6468 10.8216 15.291 11.6532C14.9346 12.4842 14.4471 13.2093 13.8285 13.8285C13.2093 14.4471 12.4842 14.9346 11.6532 15.291C10.8216 15.6468 9.93719 15.8247 8.99999 15.8247ZM8.99999 14.85C10.6248 14.85 12.006 14.2812 13.1436 13.1436C14.2812 12.006 14.85 10.6248 14.85 8.99999C14.85 7.37519 14.2812 5.99399 13.1436 4.85639C12.006 3.71879 10.6248 3.14999 8.99999 3.14999C7.37519 3.14999 5.99399 3.71879 4.85639 4.85639C3.71879 5.99399 3.14999 7.37519 3.14999 8.99999C3.14999 10.6248 3.71879 12.006 4.85639 13.1436C5.99399 14.2812 7.37519 14.85 8.99999 14.85Z" fill="#CC1B2A"/>
</g>
</svg>
