<svg width="18" height="18" viewBox="0 0 18 18" fill="none" xmlns="http://www.w3.org/2000/svg">
    <path
        d="M8.99609 12.6C9.18623 12.6 9.34692 12.5354 9.47817 12.406C9.60942 12.2766 9.67505 12.1163 9.67505 11.925V8.77505C9.67505 8.5838 9.61074 8.42349 9.48213 8.29411C9.35351 8.16474 9.19413 8.10005 9.00401 8.10005C8.81387 8.10005 8.65317 8.16474 8.52192 8.29411C8.39067 8.42349 8.32505 8.5838 8.32505 8.77505V11.925C8.32505 12.1163 8.38936 12.2766 8.51797 12.406C8.64659 12.5354 8.80597 12.6 8.99609 12.6ZM8.99609 6.75005C9.18623 6.75005 9.34692 6.68574 9.47817 6.55713C9.60942 6.4285 9.67505 6.26913 9.67505 6.07901C9.67505 5.88887 9.61074 5.72817 9.48213 5.59692C9.35351 5.46567 9.19413 5.40005 9.00401 5.40005C8.81387 5.40005 8.65317 5.46436 8.52192 5.59297C8.39067 5.72159 8.32505 5.88097 8.32505 6.07109C8.32505 6.26123 8.38936 6.42192 8.51797 6.55317C8.64659 6.68442 8.80597 6.75005 8.99609 6.75005ZM9.00522 16.2C8.01427 16.2 7.0813 16.0125 6.2063 15.6375C5.3313 15.2625 4.56567 14.7469 3.90942 14.0907C3.25317 13.4344 2.73755 12.6691 2.36255 11.7946C1.98755 10.9201 1.80005 9.98572 1.80005 8.99146C1.80005 7.99719 1.98755 7.06567 2.36255 6.19692C2.73755 5.32817 3.25317 4.56567 3.90942 3.90942C4.56567 3.25317 5.33104 2.73755 6.20551 2.36255C7.08 1.98755 8.01437 1.80005 9.00864 1.80005C10.0029 1.80005 10.9344 1.98755 11.8032 2.36255C12.6719 2.73755 13.4344 3.25317 14.0907 3.90942C14.7469 4.56567 15.2625 5.32957 15.6375 6.20112C16.0125 7.07269 16.2 8.00394 16.2 8.99487C16.2 9.98582 16.0125 10.9188 15.6375 11.7938C15.2625 12.6688 14.7469 13.4344 14.0907 14.0907C13.4344 14.7469 12.6705 15.2625 11.799 15.6375C10.9274 16.0125 9.99616 16.2 9.00522 16.2ZM9.00005 14.85C10.625 14.85 12.0063 14.2813 13.1438 13.1438C14.2813 12.0063 14.85 10.625 14.85 9.00005C14.85 7.37505 14.2813 5.9938 13.1438 4.8563C12.0063 3.7188 10.625 3.15005 9.00005 3.15005C7.37505 3.15005 5.9938 3.7188 4.8563 4.8563C3.7188 5.9938 3.15005 7.37505 3.15005 9.00005C3.15005 10.625 3.7188 12.0063 4.8563 13.1438C5.9938 14.2813 7.37505 14.85 9.00005 14.85Z"
        fill="currentColor" />
</svg>
