<svg width="18" height="18" viewBox="0 0 18 18" fill="none" xmlns="http://www.w3.org/2000/svg">
<path d="M5.79167 13.0625C6 13.0625 6.17722 12.9894 6.32333 12.8433C6.46889 12.6978 6.54167 12.5208 6.54167 12.3125C6.54167 12.1042 6.46889 11.9306 6.32333 11.7917C6.17722 11.6528 6 11.5833 5.79167 11.5833C5.58333 11.5833 5.40972 11.6528 5.27083 11.7917C5.13194 11.9306 5.0625 12.1042 5.0625 12.3125C5.0625 12.5208 5.13194 12.6978 5.27083 12.8433C5.40972 12.9894 5.58333 13.0625 5.79167 13.0625ZM5.79167 9.8125C6 9.8125 6.17722 9.74306 6.32333 9.60417C6.46889 9.46528 6.54167 9.29167 6.54167 9.08333C6.54167 8.875 6.46889 8.70139 6.32333 8.5625C6.17722 8.42361 6 8.35417 5.79167 8.35417C5.58333 8.35417 5.40972 8.42361 5.27083 8.5625C5.13194 8.70139 5.0625 8.875 5.0625 9.08333C5.0625 9.29167 5.13194 9.46528 5.27083 9.60417C5.40972 9.74306 5.58333 9.8125 5.79167 9.8125ZM5.79167 6.58333C6 6.58333 6.17722 6.51389 6.32333 6.375C6.46889 6.23611 6.54167 6.0625 6.54167 5.85417C6.54167 5.64583 6.46889 5.46861 6.32333 5.3225C6.17722 5.17694 6 5.10417 5.79167 5.10417C5.58333 5.10417 5.40972 5.17694 5.27083 5.3225C5.13194 5.46861 5.0625 5.64583 5.0625 5.85417C5.0625 6.0625 5.13194 6.23611 5.27083 6.375C5.40972 6.51389 5.58333 6.58333 5.79167 6.58333ZM8.33333 12.3125C8.33333 12.6577 8.61316 12.9375 8.95833 12.9375H12.4583C12.8035 12.9375 13.0833 12.6577 13.0833 12.3125C13.0833 11.9673 12.8035 11.6875 12.4583 11.6875H8.95833C8.61316 11.6875 8.33333 11.9673 8.33333 12.3125ZM8.33333 9.08333C8.33333 9.42851 8.61316 9.70833 8.95833 9.70833H12.4583C12.8035 9.70833 13.0833 9.42851 13.0833 9.08333C13.0833 8.73816 12.8035 8.45833 12.4583 8.45833H8.95833C8.61316 8.45833 8.33333 8.73816 8.33333 9.08333ZM8.33333 5.85417C8.33333 6.19934 8.61316 6.47917 8.95833 6.47917H10.7083H12.4583C12.8035 6.47917 13.0833 6.19934 13.0833 5.85417C13.0833 5.50899 12.8035 5.22917 12.4583 5.22917H8.95833C8.61316 5.22917 8.33333 5.50899 8.33333 5.85417ZM3.5 16.1667C3.08333 16.1667 2.72917 16.0208 2.4375 15.7292C2.14583 15.4375 2 15.0833 2 14.6667V3.5C2 3.08333 2.14583 2.72917 2.4375 2.4375C2.72917 2.14583 3.08333 2 3.5 2H14.6667C15.0833 2 15.4375 2.14583 15.7292 2.4375C16.0208 2.72917 16.1667 3.08333 16.1667 3.5V14.6667C16.1667 15.0833 16.0208 15.4375 15.7292 15.7292C15.4375 16.0208 15.0833 16.1667 14.6667 16.1667H3.5ZM3.5 14.9167H14.6667C14.7222 14.9167 14.7778 14.8889 14.8333 14.8333C14.8889 14.7778 14.9167 14.7222 14.9167 14.6667V3.5C14.9167 3.44444 14.8889 3.38889 14.8333 3.33333C14.7778 3.27778 14.7222 3.25 14.6667 3.25H3.5C3.44444 3.25 3.38889 3.27778 3.33333 3.33333C3.27778 3.38889 3.25 3.44444 3.25 3.5V14.6667C3.25 14.7222 3.27778 14.7778 3.33333 14.8333C3.38889 14.8889 3.44444 14.9167 3.5 14.9167Z" fill="#4B48C9"/>
</svg>
