<svg width="18" height="16" viewBox="0 0 18 16" fill="none" xmlns="http://www.w3.org/2000/svg">
<path d="M9.8442 15.5C8.98309 15.5 8.16712 15.3646 7.39629 15.0938C6.62545 14.8229 5.92059 14.4444 5.2817 13.9583C5.08726 13.8056 4.98309 13.6076 4.9692 13.3646C4.95531 13.1215 5.04559 12.9028 5.24004 12.7083C5.39281 12.5556 5.57337 12.4792 5.7817 12.4792C5.99004 12.4792 6.18448 12.5417 6.36504 12.6667C6.85115 13.0278 7.38587 13.3125 7.9692 13.5208C8.55254 13.7292 9.17754 13.8333 9.8442 13.8333C11.4553 13.8333 12.8303 13.2639 13.9692 12.125C15.1081 10.9861 15.6775 9.61111 15.6775 8C15.6775 6.38889 15.1081 5.01389 13.9692 3.875C12.8303 2.73611 11.4553 2.16667 9.8442 2.16667C8.23309 2.16667 6.85809 2.73611 5.7192 3.875C4.58031 5.01389 4.01087 6.38889 4.01087 8V8.14583L4.94837 7.20833C5.10115 7.05556 5.29212 6.97917 5.52129 6.97917C5.75045 6.97917 5.94837 7.05556 6.11504 7.20833C6.2817 7.375 6.36504 7.57292 6.36504 7.80208C6.36504 8.03125 6.2817 8.22917 6.11504 8.39583L3.76087 10.75C3.67754 10.8333 3.58726 10.8924 3.49004 10.9271C3.39281 10.9618 3.28865 10.9792 3.17754 10.9792C3.06643 10.9792 2.96226 10.9618 2.86504 10.9271C2.76781 10.8924 2.67754 10.8333 2.5942 10.75L0.219203 8.375C0.0664251 8.22222 -0.00649155 8.02778 0.000452899 7.79167C0.00739734 7.55556 0.0872585 7.36111 0.240036 7.20833C0.392814 7.04167 0.587259 6.95833 0.82337 6.95833C1.05948 6.95833 1.25393 7.04167 1.4067 7.20833L2.3442 8.16667V8C2.3442 6.95833 2.54212 5.98264 2.93795 5.07292C3.33379 4.16319 3.86851 3.37153 4.54212 2.69792C5.21573 2.02431 6.0074 1.48958 6.91712 1.09375C7.82684 0.697917 8.80254 0.5 9.8442 0.5C10.8859 0.5 11.8616 0.697917 12.7713 1.09375C13.681 1.48958 14.4727 2.02431 15.1463 2.69792C15.8199 3.37153 16.3546 4.16319 16.7505 5.07292C17.1463 5.98264 17.3442 6.95833 17.3442 8C17.3442 10.0833 16.615 11.8542 15.1567 13.3125C13.6984 14.7708 11.9275 15.5 9.8442 15.5ZM8.17754 11.3333C7.94143 11.3333 7.74351 11.2535 7.58379 11.0938C7.42406 10.934 7.3442 10.7361 7.3442 10.5V8C7.3442 7.76389 7.42406 7.56597 7.58379 7.40625C7.74351 7.24653 7.94143 7.16667 8.17754 7.16667V6.33333C8.17754 5.875 8.34073 5.48264 8.66712 5.15625C8.99351 4.82986 9.38587 4.66667 9.8442 4.66667C10.3025 4.66667 10.6949 4.82986 11.0213 5.15625C11.3477 5.48264 11.5109 5.875 11.5109 6.33333V7.16667C11.747 7.16667 11.9449 7.24653 12.1046 7.40625C12.2643 7.56597 12.3442 7.76389 12.3442 8V10.5C12.3442 10.7361 12.2643 10.934 12.1046 11.0938C11.9449 11.2535 11.747 11.3333 11.5109 11.3333H8.17754ZM9.01087 7.16667H10.6775V6.33333C10.6775 6.09722 10.5977 5.89931 10.438 5.73958C10.2782 5.57986 10.0803 5.5 9.8442 5.5C9.60809 5.5 9.41018 5.57986 9.25045 5.73958C9.09073 5.89931 9.01087 6.09722 9.01087 6.33333V7.16667Z" fill="#63686F"/>
</svg>
