<svg width="14" height="14" viewBox="0 0 14 14" fill="none" xmlns="http://www.w3.org/2000/svg">
<path d="M9.5877 10.0752C9.4629 9.96244 9.40049 9.82475 9.40049 9.66214C9.40049 9.50014 9.4629 9.35644 9.5877 9.23104L11.0313 7.78744H5.463C5.3004 7.78744 5.1597 7.72804 5.04089 7.60924C4.9221 7.49044 4.8627 7.34974 4.8627 7.18714C4.8627 7.02514 4.9221 6.88474 5.04089 6.76594C5.1597 6.64714 5.3004 6.58774 5.463 6.58774H10.9755L9.5688 5.14414C9.4692 5.03134 9.41939 4.89694 9.41939 4.74094C9.41939 4.58434 9.4755 4.44994 9.5877 4.33774C9.69989 4.22494 9.8406 4.16854 10.0098 4.16854C10.1784 4.16854 10.3188 4.22494 10.431 4.33774L12.7944 6.70024C12.8814 6.77524 12.9405 6.85654 12.9717 6.94414C13.0035 7.03114 13.0194 7.11844 13.0194 7.20604C13.0194 7.29364 13.0035 7.38124 12.9717 7.46884C12.9405 7.55644 12.8814 7.63774 12.7944 7.71274L10.413 10.0941C10.3128 10.2063 10.1847 10.2654 10.0287 10.2714C9.8721 10.278 9.72509 10.2126 9.5877 10.0752ZM2.1249 13.7499C1.7253 13.7499 1.3878 13.6125 1.1124 13.3377C0.837595 13.0623 0.700195 12.7248 0.700195 12.3252V2.04994C0.700195 1.64974 0.837595 1.31224 1.1124 1.03744C1.3878 0.762644 1.7253 0.625244 2.1249 0.625244H6.47549C6.62549 0.625244 6.7629 0.684644 6.8877 0.803444C7.0125 0.921644 7.0749 1.06204 7.0749 1.22464C7.0749 1.38724 7.0125 1.52794 6.8877 1.64674C6.7629 1.76554 6.62549 1.82494 6.47549 1.82494H2.1249C2.0751 1.82494 2.0253 1.84984 1.9755 1.89964C1.9251 1.95004 1.8999 2.00014 1.8999 2.04994V12.3252C1.8999 12.375 1.9251 12.4248 1.9755 12.4746C2.0253 12.525 2.0751 12.5502 2.1249 12.5502H6.47549C6.62549 12.5502 6.7629 12.6096 6.8877 12.7284C7.0125 12.8466 7.0749 12.987 7.0749 13.1496C7.0749 13.3122 7.0125 13.4529 6.8877 13.5717C6.7629 13.6905 6.62549 13.7499 6.47549 13.7499H2.1249Z" fill="#63686F"/>
</svg>
