<svg width="12" height="12" viewBox="0 0 18 18" fill="none" xmlns="http://www.w3.org/2000/svg">
<path fill-rule="evenodd" clip-rule="evenodd" d="M3 9C3 8.58579 3.33579 8.25 3.75 8.25H14.25C14.6642 8.25 15 8.58579 15 9C15 9.41421 14.6642 9.75 14.25 9.75H3.75C3.33579 9.75 3 9.41421 3 9Z" fill="#ffffff"/>
<path fill-rule="evenodd" clip-rule="evenodd" d="M14.7803 8.46967C15.0732 8.76256 15.0732 9.23744 14.7803 9.53033L10.2803 14.0303C9.98744 14.3232 9.51256 14.3232 9.21967 14.0303C8.92678 13.7374 8.92678 13.2626 9.21967 12.9697L13.7197 8.46967C14.0126 8.17678 14.4874 8.17678 14.7803 8.46967Z" fill="#ffffff"/>
<path fill-rule="evenodd" clip-rule="evenodd" d="M9.21967 3.96967C9.51256 3.67678 9.98744 3.67678 10.2803 3.96967L14.7803 8.46967C15.0732 8.76256 15.0732 9.23744 14.7803 9.53033C14.4874 9.82322 14.0126 9.82322 13.7197 9.53033L9.21967 5.03033C8.92678 4.73744 8.92678 4.26256 9.21967 3.96967Z" fill="#ffffff"/>
</svg>
