<svg width="24" height="24" viewBox="0 0 24 24" fill="none" xmlns="http://www.w3.org/2000/svg">
    <path
        d="M3.4249 20.4999C3.0749 20.4999 2.81657 20.3499 2.6499 20.0499C2.48324 19.7499 2.48324 19.4499 2.6499 19.1499L11.1999 4.3499C11.3832 4.0499 11.6499 3.8999 11.9999 3.8999C12.3499 3.8999 12.6166 4.0499 12.7999 4.3499L21.3499 19.1499C21.5166 19.4499 21.5166 19.7499 21.3499 20.0499C21.1832 20.3499 20.9249 20.4999 20.5749 20.4999H3.4249ZM11.9999 10.1999C11.7832 10.1999 11.6042 10.2706 11.4629 10.4119C11.3209 10.5539 11.2499 10.7332 11.2499 10.9499V14.4499C11.2499 14.6499 11.3209 14.8249 11.4629 14.9749C11.6042 15.1249 11.7832 15.1999 11.9999 15.1999C12.2166 15.1999 12.3959 15.1249 12.5379 14.9749C12.6792 14.8249 12.7499 14.6499 12.7499 14.4499V10.9499C12.7499 10.7332 12.6792 10.5539 12.5379 10.4119C12.3959 10.2706 12.2166 10.1999 11.9999 10.1999ZM11.9999 17.7999C12.2332 17.7999 12.4249 17.7249 12.5749 17.5749C12.7249 17.4249 12.7999 17.2332 12.7999 16.9999C12.7999 16.7666 12.7249 16.5749 12.5749 16.4249C12.4249 16.2749 12.2332 16.1999 11.9999 16.1999C11.7666 16.1999 11.5749 16.2749 11.4249 16.4249C11.2749 16.5749 11.1999 16.7666 11.1999 16.9999C11.1999 17.2332 11.2749 17.4249 11.4249 17.5749C11.5749 17.7249 11.7666 17.7999 11.9999 17.7999ZM4.4499 18.9999H19.5499L11.9999 5.9999L4.4499 18.9999Z"
        fill="white" />
</svg>
